<?xml version="1.0" encoding="utf-8"?>
<!-- Generator: Adobe Illustrator 16.0.0, SVG Export Plug-In . SVG Version: 6.00 Build 0)  -->
<!DOCTYPE svg PUBLIC "-//W3C//DTD SVG 1.1//EN" "http://www.w3.org/Graphics/SVG/1.1/DTD/svg11.dtd">
<svg version="1.1" xmlns="http://www.w3.org/2000/svg" xmlns:xlink="http://www.w3.org/1999/xlink" x="0px" y="0px" width="64px"
	 height="64px" viewBox="0 0 64 64" enable-background="new 0 0 64 64" xml:space="preserve">
<g id="Layer_1">
	<path fill="#1A9FB2" d="M59.694,16.671v-0.102l-47.483-0.1l0,0c-2.537,4.158-3.854,8.724-3.854,13.697c0,0.913,0,1.724,0,2.435
		l54.99-4.667c-0.304-3.348-1.116-6.392-2.537-9.335C60.505,17.99,60.099,17.279,59.694,16.671z"/>
	<path fill="#19434C" d="M52.389,13.12c-1.116-1.826-2.435-3.449-4.058-5.073c-5.174-5.174-11.566-7.812-18.872-7.812
		c-7.406,0-13.696,2.638-18.972,7.812c-1.623,1.625-3.044,3.451-4.16,5.276L52.389,13.12z"/>
	<path fill="#D0E3E9" d="M55.636,33.918c0-0.913,0-1.624,0-2.333L0.644,36.151c0.305,4.16,1.522,7.914,3.552,11.363h0.102
		l47.482,0.203v-0.103C54.316,43.558,55.534,38.992,55.636,33.918z"/>
	<path fill="#EF482F" d="M53.708,56.037c1.725-1.624,3.044-3.349,4.16-5.174l-45.961,0.101c1.015,1.826,2.436,3.551,3.958,5.073
		c5.275,5.275,11.566,7.812,18.871,7.812C42.243,63.849,48.533,61.313,53.708,56.037z"/>
</g>
<g id="Layer_2">
</g>
</svg>
